<svg xmlns="http://www.w3.org/2000/svg" style="display: none;"><symbol id="server" viewBox="0 0 60 60"><title>server</title><path d="M10.5,6.5C8.019,6.5,6,8.519,6,11s2.019,4.5,4.5,4.5S15,13.481,15,11S12.981,6.5,10.5,6.5z M10.5,13.5 C9.122,13.5,8,12.379,8,11s1.122-2.5,2.5-2.5S13,9.621,13,11S11.878,13.5,10.5,13.5z"/><circle cx="50" cy="9.5" r="1"/><circle cx="46" cy="9.5" r="1"/><circle cx="52" cy="12.5" r="1"/><circle cx="48" cy="12.5" r="1"/><circle cx="42" cy="9.5" r="1"/><circle cx="44" cy="12.5" r="1"/><circle cx="38" cy="9.5" r="1"/><circle cx="40" cy="12.5" r="1"/><circle cx="34" cy="9.5" r="1"/><circle cx="36" cy="12.5" r="1"/><path d="M60,16.892V5.108C60,2.567,57.933,0.5,55.392,0.5H4.608C2.067,0.5,0,2.567,0,5.108v11.783c0,1.469,0.703,2.764,1.777,3.608 C0.703,21.344,0,22.64,0,24.108v11.783c0,1.469,0.703,2.764,1.777,3.608C0.703,40.344,0,41.64,0,43.108v11.783 C0,57.433,2.067,59.5,4.608,59.5h50.783c2.541,0,4.608-2.067,4.608-4.608V43.108c0-1.469-0.703-2.764-1.777-3.608 C59.297,38.656,60,37.36,60,35.892V24.108c0-1.469-0.703-2.764-1.777-3.608C59.297,19.656,60,18.36,60,16.892z M58,43.108v11.783 c0,1.438-1.17,2.608-2.608,2.608H4.608C3.17,57.5,2,56.33,2,54.892V43.108C2,41.67,3.17,40.5,4.608,40.5h50.783 C56.83,40.5,58,41.67,58,43.108z M58,24.108v11.783c0,1.438-1.17,2.608-2.608,2.608H4.608C3.17,38.5,2,37.33,2,35.892V24.108 C2,22.67,3.17,21.5,4.608,21.5h50.783C56.83,21.5,58,22.67,58,24.108z M4.608,19.5C3.17,19.5,2,18.33,2,16.892V5.108 C2,3.67,3.17,2.5,4.608,2.5h50.783C56.83,2.5,58,3.67,58,5.108v11.783c0,1.438-1.17,2.608-2.608,2.608H4.608z"/><path d="M10.5,34.5c2.481,0,4.5-2.019,4.5-4.5s-2.019-4.5-4.5-4.5S6,27.519,6,30S8.019,34.5,10.5,34.5z M10.5,27.5 c1.378,0,2.5,1.121,2.5,2.5s-1.122,2.5-2.5,2.5S8,31.379,8,30S9.122,27.5,10.5,27.5z"/><circle cx="50" cy="28.5" r="1"/><circle cx="46" cy="28.5" r="1"/><circle cx="52" cy="31.5" r="1"/><circle cx="48" cy="31.5" r="1"/><circle cx="42" cy="28.5" r="1"/><circle cx="44" cy="31.5" r="1"/><circle cx="38" cy="28.5" r="1"/><circle cx="40" cy="31.5" r="1"/><circle cx="34" cy="28.5" r="1"/><circle cx="36" cy="31.5" r="1"/><path d="M10.5,53.5c2.481,0,4.5-2.019,4.5-4.5s-2.019-4.5-4.5-4.5S6,46.519,6,49S8.019,53.5,10.5,53.5z M10.5,46.5 c1.378,0,2.5,1.121,2.5,2.5s-1.122,2.5-2.5,2.5S8,50.379,8,49S9.122,46.5,10.5,46.5z"/><circle cx="50" cy="47.5" r="1"/><circle cx="46" cy="47.5" r="1"/><circle cx="52" cy="50.5" r="1"/><circle cx="48" cy="50.5" r="1"/><circle cx="42" cy="47.5" r="1"/><circle cx="44" cy="50.5" r="1"/><circle cx="38" cy="47.5" r="1"/><circle cx="40" cy="50.5" r="1"/><circle cx="34" cy="47.5" r="1"/><circle cx="36" cy="50.5" r="1"/></symbol><symbol id="search" viewBox="0 0 52.966 52.966"><title>search</title><path d="M51.704,51.273L36.845,35.82c3.79-3.801,6.138-9.041,6.138-14.82c0-11.58-9.42-21-21-21s-21,9.42-21,21s9.42,21,21,21 c5.083,0,9.748-1.817,13.384-4.832l14.895,15.491c0.196,0.205,0.458,0.307,0.721,0.307c0.25,0,0.499-0.093,0.693-0.279 C52.074,52.304,52.086,51.671,51.704,51.273z M21.983,40c-10.477,0-19-8.523-19-19s8.523-19,19-19s19,8.523,19,19 S32.459,40,21.983,40z"/></symbol><symbol id="checked" viewBox="0 0 426.667 426.667"><title>checked</title><path style="fill:#6AC259;" d="M213.333,0C95.518,0,0,95.514,0,213.333s95.518,213.333,213.333,213.333 c117.828,0,213.333-95.514,213.333-213.333S331.157,0,213.333,0z M174.199,322.918l-93.935-93.931l31.309-31.309l62.626,62.622 l140.894-140.898l31.309,31.309L174.199,322.918z"/></symbol><symbol id="error" viewBox="0 0 50 50"><title>error</title><circle style="fill:#D75A4A;" cx="25" cy="25" r="25"/><polyline style="fill:none;stroke:#FFFFFF;stroke-width:2;stroke-linecap:round;stroke-miterlimit:10;" points="16,34 25,25 34,16 "/><polyline style="fill:none;stroke:#FFFFFF;stroke-width:2;stroke-linecap:round;stroke-miterlimit:10;" points="16,16 25,25 34,34 "/></symbol><symbol id="letter-a" viewBox="0 0 512 512"><title>letter-a</title><g transform="matrix(1.25 0 0 -1.25 0 45)"> <g> <g> <path style="fill:#3B88C3;" d="M409.6-328.089c0-25.134-20.378-45.511-45.511-45.511H45.511C20.378-373.6,0-353.222,0-328.089 V-9.511C0,15.622,20.378,36,45.511,36h318.578C389.222,36,409.6,15.622,409.6-9.511V-328.089z"/> <path style="fill:#FFFFFF;" d="M171.691-195.89h67.026L205.915-93.582h-0.705L171.691-195.89z M167.811-67.822 c5.996,16.225,19.752,29.275,37.751,29.275c18.694,0,31.755-12.345,37.74-29.275l69.154-191.909 c2.105-5.643,2.822-10.593,2.822-13.062c0-13.756-11.298-23.279-24.337-23.279c-14.825,0-22.232,7.76-25.759,18.341 l-10.581,33.166h-98.076l-10.581-32.814c-3.527-10.934-10.945-18.694-25.407-18.694c-14.108,0-26.101,10.581-26.101,24.69 c0,5.643,1.764,9.876,2.469,11.651L167.811-67.822L167.811-67.822z"/> </g> </g> </g></symbol><symbol id="letter-b" viewBox="0 0 512 512"><title>letter-b</title><g transform="matrix(1.25 0 0 -1.25 0 45)"> <g> <g> <path style="fill:#3B88C3;" d="M409.6-328.089c0-25.134-20.378-45.511-45.511-45.511H45.511C20.378-373.6,0-353.222,0-328.089 V-9.511C0,15.622,20.378,36,45.511,36h318.578C389.222,36,409.6,15.622,409.6-9.511V-328.089z"/> <path style="fill:#FFFFFF;" d="M172.373-247.42h41.631c19.058,0,33.166,10.934,33.166,30.686 c0,16.589-12.709,27.876-37.399,27.876h-37.399V-247.42z M172.373-142.29h27.523c17.283,0,28.57,10.229,28.57,27.864 c0,16.577-13.05,25.054-28.57,25.054l-27.523,0V-142.29z M119.467-69.267c0,16.93,11.639,26.453,27.864,26.453h67.732 c36.682,0,66.332-24.69,66.332-62.089c0-24.69-10.251-41.279-32.825-51.849v-0.717c30.003-4.233,53.623-29.275,53.623-59.961 c0-49.744-33.155-76.561-81.852-76.561h-72.658c-16.236,0-28.217,10.24-28.217,26.817V-69.267L119.467-69.267z"/> </g> </g> </g></symbol><symbol id="letter-c" viewBox="0 0 512 512"><title>letter-c</title><g transform="matrix(1.25 0 0 -1.25 0 45)"> <g> <g> <path style="fill:#3B88C3;" d="M409.6-328.089c0-25.134-20.378-45.511-45.511-45.511H45.511C20.378-373.6,0-353.222,0-328.089 V-9.511C0,15.622,20.378,36,45.511,36h318.578C389.222,36,409.6,15.622,409.6-9.511V-328.089z"/> <path style="fill:#FFFFFF;" d="M224.404-38.547c25.759,0,75.844-8.465,75.844-39.515c0-12.698-8.818-23.632-21.868-23.632 c-14.461,0-24.337,12.345-53.976,12.345c-43.736,0-66.321-37.046-66.321-80.077c0-41.973,22.926-77.961,66.321-77.961 c29.639,0,41.62,14.802,56.092,14.802c15.883,0,23.29-15.861,23.29-23.973c0-33.872-53.271-41.631-79.383-41.631 c-71.612,0-121.355,56.798-121.355,129.82C103.049-94.992,152.439-38.547,224.404-38.547"/> </g> </g> </g></symbol><symbol id="letter-u" viewBox="0 0 512 512"><title>letter-u</title><g transform="matrix(1.25 0 0 -1.25 0 45)"> <g> <g> <path style="fill:#3B88C3;" d="M409.6-328.089c0-25.134-20.378-45.511-45.511-45.511H45.511C20.378-373.6,0-353.222,0-328.089 V-9.511C0,15.622,20.378,36,45.511,36h318.578C389.222,36,409.6,15.622,409.6-9.511V-328.089z"/> <path style="fill:#FFFFFF;" d="M91.022-68.175c0,17.636,13.278,27.511,28.444,27.511s28.444-9.876,28.444-27.511v-123.119 c0-32.461,23.381-56.013,56.889-56.013c32.108,0,56.889,24.963,56.889,56.013v123.119c0,17.636,13.289,27.511,28.444,27.511 c15.178,0,28.069-9.876,28.069-27.511v-125.941c0-59.267-55.205-104.073-113.402-104.073c-58.914,0-113.778,44.1-113.778,104.073 L91.022-68.175z"/> </g> </g> </g></symbol><symbol id="placeholder" viewBox="-41 0 512 512"><title>placeholder</title><path d="m367.265625 63.011719c-40.632813-40.632813-94.660156-63.011719-152.125-63.011719-57.46875 0-111.492187 22.378906-152.128906 63.011719-40.632813 40.636719-63.011719 94.664062-63.011719 152.128906 0 50.25 17.703125 99.152344 49.847656 137.699219v.003906c8.179688 9.804688 17.28125 18.933594 27.0625 27.144531l127.609375 127.613281c2.933594 2.933594 6.777344 4.398438 10.621094 4.398438s7.6875-1.464844 10.617187-4.398438l127.613282-127.613281c9.78125-8.210937 18.882812-17.339843 27.058594-27.148437 32.148437-38.546875 49.851562-87.449219 49.851562-137.699219 0-57.464844-22.378906-111.492187-63.015625-152.128906zm-34.660156 295.265625-117.464844 117.464844-117.464844-117.464844c-.320312-.316406-.652343-.625-1-.914063-8.597656-7.167969-16.589843-15.160156-23.761719-23.757812-27.648437-33.15625-42.878906-75.230469-42.878906-118.464844 0-102.066406 83.039063-185.105469 185.105469-185.105469s185.105469 83.039063 185.105469 185.105469c0 43.234375-15.230469 85.304687-42.882813 118.464844-7.167969 8.597656-15.164062 16.589843-23.757812 23.757812-.347657.289063-.679688.597657-1 .914063zm0 0"/><path d="m262.15625 165.875h-53.339844c-8.292968 0-15.019531 6.722656-15.019531 15.015625v92.988281c0 8.296875 6.726563 15.019532 15.019531 15.019532 8.292969 0 15.019532-6.722657 15.019532-15.019532v-31.476562h38.320312c21.101562 0 38.265625-17.164063 38.265625-38.265625 0-21.097657-17.164063-38.261719-38.265625-38.261719zm0 46.492188h-38.320312v-16.457032h38.320312c4.539062 0 8.230469 3.691406 8.230469 8.230469 0 4.535156-3.691407 8.226563-8.230469 8.226563zm0 0"/><path d="m164.386719 165.875c-8.292969 0-15.019531 6.722656-15.019531 15.015625v92.988281c0 8.296875 6.726562 15.019532 15.019531 15.019532s15.019531-6.722657 15.019531-15.019532v-92.988281c0-8.292969-6.726562-15.015625-15.019531-15.015625zm0 0"/></symbol><symbol id="flag" viewBox="0 0 60 60"><title>flag</title><path d="M51.371,3.146c-0.459-0.185-11.359-4.452-19.84,0.045C24.811,6.758,13.015,4.082,10,3.308V1c0-0.553-0.447-1-1-1 S8,0.447,8,1v3c0,0.014,0.007,0.026,0.008,0.04C8.008,4.052,8,4.062,8,4.074V33v1.074V59c0,0.553,0.447,1,1,1s1-0.447,1-1V35.375 c2.273,0.567,7.227,1.632,12.368,1.632c3.557,0,7.2-0.511,10.101-2.049c7.652-4.061,18.056,0.004,18.16,0.045 c0.309,0.124,0.657,0.086,0.932-0.102C51.835,34.716,52,34.406,52,34.074v-30C52,3.665,51.751,3.298,51.371,3.146z M50,32.665 c-3.26-1.038-11.646-3.096-18.469,0.525C24.812,36.756,13.02,34.082,10,33.308V33V5.375c3.853,0.961,15.381,3.343,22.469-0.417 C39.035,1.475,47.627,3.973,50,4.777V32.665z"/></symbol><symbol id="visitor" viewBox="0 0 480 480"><title>visitor</title><g> <g> <path d="M125.112,383.126c-5.46-3.631-11.692-5.937-18.2-6.736c12.484-9.827,20.161-24.531,21.088-40.392 c0-52.896-30.456-64-56-64s-56,11.104-56,64c0.929,15.862,8.609,30.566,21.096,40.392C15.89,379.003-0.031,397.031,0,418.398v53.6 c0,4.418,3.582,8,8,8h128c4.418,0,8-3.582,8-8v-53.6C144.009,404.219,136.918,390.978,125.112,383.126z M32.416,327.534 C34.584,300.718,47.2,287.998,72,287.998c22.704,0,35.2,10.736,38.776,33.136l-26.656-16c-3.789-2.273-8.703-1.044-10.976,2.745 c-0.3,0.5-0.544,1.03-0.728,1.583C68.368,321.606,46.512,326.198,32.416,327.534z M33.112,343.582 c13.696-1.128,38.4-5.272,49.92-20.44l28.592,17.16C108.416,359.894,84.28,375.998,72,375.998 C54.157,372.959,39.314,360.586,33.112,343.582z M78.608,422.062L72,428.686l-6.608-6.616L72,405.534L78.608,422.062z M128,463.998H16v-45.6c0-14.58,11.82-26.4,26.4-26.4h17.76L48.568,421.03c-1.185,2.971-0.487,6.363,1.776,8.624l16,16 c3.124,3.123,8.188,3.123,11.312,0l16-16c2.263-2.261,2.961-5.653,1.776-8.624l-11.616-29.032H101.6c14.58,0,26.4,11.82,26.4,26.4 V463.998z"/> </g> </g><g> <g> <path d="M293.112,383.126c-5.46-3.631-11.692-5.937-18.2-6.736c12.484-9.827,20.161-24.531,21.088-40.392 c0-52.896-30.456-64-56-64s-56,11.104-56,64c0.929,15.862,8.609,30.566,21.096,40.392c-21.206,2.613-37.127,20.641-37.096,42.008 v53.6c0,4.418,3.582,8,8,8h128c4.418,0,8-3.582,8-8v-53.6C312.009,404.219,304.918,390.978,293.112,383.126z M200.416,327.534 c2.168-26.816,14.784-39.536,39.584-39.536c22.704,0,35.2,10.736,38.776,33.136l-26.656-16c-3.789-2.273-8.703-1.044-10.976,2.745 c-0.3,0.5-0.544,1.03-0.728,1.583C236.368,321.606,214.512,326.198,200.416,327.534z M201.112,343.582 c13.696-1.128,38.4-5.272,49.92-20.44l28.592,17.16c-3.208,19.592-27.344,35.696-39.624,35.696 C222.157,372.959,207.314,360.586,201.112,343.582z M246.608,422.062L240,428.686l-6.608-6.616L240,405.534L246.608,422.062z M296,463.998H184v-45.6c0-14.58,11.82-26.4,26.4-26.4h17.76l-11.616,29.032c-1.185,2.971-0.487,6.363,1.776,8.624l16,16 c3.124,3.123,8.188,3.123,11.312,0l16-16c2.263-2.261,2.961-5.653,1.776-8.624l-11.592-29.032H269.6c14.58,0,26.4,11.82,26.4,26.4 V463.998z"/> </g> </g><g> <g> <path d="M461.112,383.126c-5.46-3.631-11.692-5.937-18.2-6.736c12.484-9.827,20.161-24.531,21.088-40.392 c0-52.896-30.456-64-56-64s-56,11.104-56,64c0.929,15.862,8.609,30.566,21.096,40.392c-21.206,2.613-37.127,20.641-37.096,42.008 v53.6c0,4.418,3.582,8,8,8h128c4.418,0,8-3.582,8-8v-53.6C480.009,404.219,472.918,390.978,461.112,383.126z M368.416,327.534 c2.168-26.816,14.784-39.536,39.584-39.536c22.704,0,35.2,10.736,38.776,33.136l-26.656-16c-3.789-2.273-8.703-1.044-10.976,2.745 c-0.3,0.5-0.544,1.03-0.728,1.583C404.368,321.606,382.512,326.198,368.416,327.534z M369.112,343.582 c13.696-1.128,38.4-5.272,49.92-20.44l28.592,17.16c-3.208,19.592-27.344,35.696-39.624,35.696 C390.157,372.959,375.314,360.586,369.112,343.582z M414.608,422.062L408,428.686l-6.608-6.616L408,405.534L414.608,422.062z M464,463.998H352v-45.6c0-14.58,11.82-26.4,26.4-26.4h17.76l-11.616,29.032c-1.185,2.971-0.487,6.363,1.776,8.624l16,16 c3.124,3.123,8.188,3.123,11.312,0l16-16c2.263-2.261,2.961-5.653,1.776-8.624l-11.592-29.032H437.6c14.58,0,26.4,11.82,26.4,26.4 V463.998z"/> </g> </g><g> <g> <path d="M368,239.998v-104c0-4.418-3.582-8-8-8h-72v-24c0-4.418-3.582-8-8-8h-48.6c-11.748-20.436-33.799-32.738-57.36-32 C138.943,65.964,111.607,95.2,112,130.35c-0.013,20.888,5.944,41.344,17.168,58.96l32.256,50.688H152v16h224v-16H368z M200,239.998h-9.424L200,225.19V239.998z M176,233.102l-33.328-52.384c-9.592-15.047-14.683-32.523-14.672-50.368 c-0.453-26.524,20.044-48.709,46.52-50.352H176c26.51,0,48,21.49,48,48v2.352c0.017,17.856-5.074,35.343-14.672,50.4L176,233.102z M272,239.998h-56v-39.96l6.832-10.728c11.224-17.616,17.181-38.072,17.168-58.96v-2.352c-0.019-5.399-0.718-10.775-2.08-16H272 V239.998z M328,239.998h-16v-24h16V239.998z M352,151.998h-16v16h16v8h-16v16h16v48h-8v-32c0-4.418-3.582-8-8-8h-32 c-4.418,0-8,3.582-8,8v32h-8v-48h16v-16h-16v-8h16v-16h-16v-8h64V151.998z"/> </g> </g><g> <g> <rect x="248" y="119.998" width="16" height="16"/> </g> </g><g> <g> <rect x="312" y="151.998" width="16" height="16"/> </g> </g><g> <g> <rect x="312" y="175.998" width="16" height="16"/> </g> </g><g> <g> <rect x="248" y="143.998" width="16" height="16"/> </g> </g><g> <g> <rect x="248" y="167.998" width="16" height="16"/> </g> </g><g> <g> <rect x="224" y="191.998" width="16" height="16"/> </g> </g><g> <g> <rect x="248" y="191.998" width="16" height="16"/> </g> </g><g> <g> <rect x="224" y="215.998" width="16" height="16"/> </g> </g><g> <g> <rect x="248" y="215.998" width="16" height="16"/> </g> </g><g> <g> <path d="M443.944,166.918l-15.688,3.16c0.984,4.888,1.784,9.888,2.4,14.856l15.864-1.888 C445.872,177.654,445.008,172.23,443.944,166.918z"/> </g> </g><g> <g> <path d="M36,167.302c-1.08,5.344-1.928,10.76-2.56,16.104l15.888,1.872c0.576-4.928,1.376-9.936,2.352-14.88L36,167.302z"/> </g> </g><g> <g> <path d="M421.312,105.99l-13.936,7.856c2.456,4.344,4.8,8.848,6.88,13.4l14.504-6.752 C426.472,115.574,423.96,110.694,421.312,105.99z"/> </g> </g><g> <g> <path d="M403.136,78.934l-12.56,9.936c3.096,3.896,6.088,8,8.896,12.168l13.264-8.936 C409.696,87.59,406.464,83.158,403.136,78.934z"/> </g> </g><g> <g> <path d="M76.696,79.198c-3.368,4.24-6.6,8.68-9.616,13.176l13.296,8.904c2.776-4.152,5.76-8.248,8.864-12.176L76.696,79.198z"/> </g> </g><g> <g> <path d="M380.96,55.046l-10.848,11.76c3.704,3.424,7.296,7,10.664,10.632l11.736-10.872 C388.864,62.63,384.976,58.75,380.96,55.046z"/> </g> </g><g> <g> <path d="M58.536,106.254c-2.64,4.696-5.144,9.592-7.432,14.544l14.512,6.72c2.12-4.576,4.432-9.096,6.856-13.408L58.536,106.254z"/> </g> </g><g> <g> <path d="M44.848,135.894c-1.896,5.12-3.592,10.344-5.048,15.528l15.392,4.344c1.352-4.8,2.92-9.6,4.672-14.336L44.848,135.894z"/> </g> </g><g> <g> <path d="M98.824,55.238c-4,3.672-7.856,7.552-11.536,11.536L99.04,77.63c3.36-3.664,6.976-7.232,10.64-10.64L98.824,55.238z"/> </g> </g><g> <g> <path d="M435.048,135.566l-15,5.56c1.752,4.712,3.328,9.528,4.688,14.32l15.392-4.376 C438.648,145.878,436.928,140.67,435.048,135.566z"/> </g> </g><g> <g> <path d="M183.416,7.798c-5.248,1.488-10.472,3.2-15.504,5.048l5.544,15c4.648-1.712,9.472-3.28,14.32-4.656L183.416,7.798z"/> </g> </g><g> <g> <path d="M215.416,1.446c-5.344,0.632-10.768,1.488-16.112,2.536l3.096,15.704c4.944-0.976,9.952-1.776,14.888-2.352L215.416,1.446 z"/> </g> </g><g> <g> <path d="M231.68,0.158l0.608,16c4.992-0.176,10.08-0.192,15.072,0l0.64-16C242.584-0.058,237.096-0.042,231.68,0.158z"/> </g> </g><g> <g> <path d="M152.84,19.086c-4.904,2.264-9.8,4.8-14.528,7.424l7.84,13.952c4.368-2.456,8.872-4.8,13.408-6.856L152.84,19.086z"/> </g> </g><g> <g> <path d="M264.232,1.398L262.4,17.286c4.92,0.568,9.928,1.352,14.888,2.32l3.064-15.704C274.984,2.854,269.6,2.014,264.232,1.398z"/> </g> </g><g> <g> <path d="M355.32,34.862l-8.872,13.312c4.128,2.752,8.224,5.728,12.192,8.848l9.888-12.576 C364.232,41.07,359.792,37.838,355.32,34.862z"/> </g> </g><g> <g> <path d="M296.224,7.694l-4.296,15.408c4.8,1.344,9.6,2.896,14.32,4.624l5.512-15.016C306.672,10.83,301.448,9.15,296.224,7.694z"/> </g> </g><g> <g> <path d="M124.408,35.054c-4.528,3.048-8.968,6.272-13.176,9.6l9.904,12.56c3.888-3.072,8-6.056,12.192-8.88L124.408,35.054z"/> </g> </g><g> <g> <path d="M326.848,18.942L320.16,33.47c4.52,2.088,9.048,4.392,13.44,6.832l7.8-13.968 C336.648,23.694,331.76,21.198,326.848,18.942z"/> </g> </g><g> <g> <path d="M176,95.998c-17.673,0-32,14.327-32,32s14.327,32,32,32s32-14.327,32-32S193.673,95.998,176,95.998z M176,143.998 c-8.837,0-16-7.163-16-16s7.163-16,16-16s16,7.163,16,16S184.837,143.998,176,143.998z"/> </g> </g></symbol><symbol id="improvement" viewBox="0 0 411.347 411.347"><title>improvement</title><path d="M285.32,217.557c-4.051-4.051-9.437-6.282-15.165-6.282c-1.389,0-2.757,0.137-4.092,0.393l-94.35-94.349l18.283-18.283 c2.929-2.929,2.929-7.677,0-10.606l-4.627-4.627l69.412-69.412c2.079-2.079,2.751-5.181,1.72-7.935 c-1.032-2.753-3.577-4.65-6.511-4.851c-39.83-2.727-78.87,11.595-107.485,39.333l-4.648-4.648 c-1.406-1.406-3.314-2.197-5.303-2.197s-3.897,0.79-5.303,2.197l-74.485,74.485c-2.929,2.929-2.929,7.677,0,10.606l7.175,7.175 l-13.146,13.146l-7.175-7.175c-2.929-2.929-7.678-2.929-10.606,0L2.197,161.344C0.79,162.751,0,164.659,0,166.648 s0.79,3.897,2.197,5.303l52.14,52.139c1.464,1.465,3.384,2.197,5.303,2.197s3.839-0.732,5.303-2.197l26.816-26.816 c1.407-1.406,2.197-3.314,2.197-5.303c0-1.989-0.79-3.897-2.197-5.303l-7.178-7.178l13.146-13.146l7.178,7.178 c1.406,1.406,3.314,2.197,5.303,2.197s3.897-0.79,5.303-2.197l18.283-18.283l94.356,94.356c-1.302,6.759,0.658,14.028,5.881,19.251 l111.896,111.895c4.051,4.051,9.437,6.282,15.165,6.282c5.729,0,11.115-2.231,15.166-6.282l20.958-20.958c0,0,0,0,0,0 c8.361-8.362,8.361-21.968,0-30.331L285.32,217.557z M231.359,16.599l-56.597,56.598l-21.654-21.655 C174.412,30.968,202.144,18.697,231.359,16.599z M59.64,208.18l-41.533-41.533l16.21-16.21l41.533,41.533L59.64,208.18z M73.975,168.883l-16.573-16.573l13.146-13.146l16.573,16.573L73.975,168.883z M110.208,157.612l-41.533-41.533l63.878-63.878 l41.533,41.533L110.208,157.612z M161.107,127.926l91.757,91.756l-16.706,16.706l-91.757-91.756L161.107,127.926z M386.608,349.176 l-20.958,20.958c-1.218,1.218-2.836,1.888-4.559,1.888c-1.722,0-3.341-0.671-4.559-1.888L244.639,258.239 c-2.512-2.512-2.513-6.599-0.005-9.113l20.968-20.968c1.217-1.214,2.833-1.883,4.553-1.883c1.722,0,3.341,0.671,4.559,1.888 l111.895,111.894C389.122,342.572,389.122,346.663,386.608,349.176z"/><path d="M248.499,170.211c-2.929,2.929-2.929,7.678,0,10.607c2.93,2.929,7.678,2.929,10.607,0l16.02-16.02 c19.011-19.011,28.245-44.863,25.335-70.926c-1.744-15.617,4.279-31.152,16.113-41.556c3.396-2.986,7.192-5.456,11.272-7.354 l-6.163,19.756c-2.553,8.18-1.767,16.864,2.214,24.453c3.979,7.589,10.677,13.173,18.856,15.725 c16.885,5.269,34.909-4.185,40.179-21.071l6.366-20.41c4.458,7.255,6.904,15.593,7.042,24.344 c0.207,13.131-4.792,25.476-14.075,34.76c-5.454,5.453-11.914,9.407-19.201,11.753c-13.575,4.37-25.942,11.87-35.763,21.691 l-39.191,39.191c-2.929,2.929-2.929,7.677,0,10.606c1.465,1.465,3.385,2.197,5.304,2.197s3.839-0.732,5.304-2.197l39.191-39.191 c8.145-8.145,18.432-14.376,29.751-18.019c9.441-3.039,18.159-8.373,25.212-15.425c12.181-12.181,18.739-28.377,18.467-45.604 c-0.271-17.227-7.353-33.221-19.938-45.038c-1.884-1.768-4.545-2.443-7.042-1.785c-2.498,0.657-4.482,2.554-5.252,5.02 l-10.494,33.639c-2.805,8.99-12.404,14.023-21.392,11.219c-4.355-1.359-7.921-4.332-10.039-8.372 c-2.119-4.041-2.538-8.664-1.179-13.019l10.374-33.254c0.773-2.482,0.208-5.188-1.497-7.151c-1.704-1.964-4.31-2.903-6.869-2.485 c-11.691,1.905-22.528,7.008-31.341,14.755c-15.51,13.636-23.403,34.005-21.117,54.486c2.402,21.507-5.265,42.885-21.034,58.655 L248.499,170.211z"/><path d="M211.795,271.471c-19.01,19.01-28.244,44.861-25.334,70.926c1.744,15.616-4.28,31.151-16.114,41.556 c-3.396,2.986-7.193,5.456-11.271,7.354l6.163-19.756c2.552-8.18,1.766-16.864-2.214-24.453 c-3.98-7.589-10.677-13.173-18.857-15.725c-8.181-2.552-16.865-1.766-24.453,2.214c-7.589,3.98-13.173,10.677-15.725,18.856 l-6.367,20.41c-4.459-7.256-6.904-15.592-7.042-24.345c-0.207-13.131,4.792-25.476,14.076-34.76 c5.453-5.453,11.913-9.407,19.201-11.752c13.575-4.369,25.941-11.87,35.762-21.691l39.819-39.82c2.929-2.929,2.929-7.678,0-10.606 c-2.929-2.929-7.678-2.929-10.606,0l-39.819,39.82c-8.145,8.145-18.433,14.376-29.751,18.019 c-9.441,3.039-18.16,8.373-25.211,15.425c-12.181,12.181-18.739,28.376-18.468,45.603c0.271,17.227,7.353,33.222,19.939,45.039 c1.883,1.768,4.546,2.443,7.042,1.785c2.498-0.657,4.482-2.554,5.251-5.02l10.494-33.639c1.358-4.355,4.332-7.92,8.372-10.039 c4.04-2.119,8.664-2.538,13.02-1.179c4.355,1.359,7.921,4.332,10.04,8.372s2.538,8.664,1.179,13.019l-10.374,33.254 c-0.774,2.482-0.208,5.188,1.496,7.151c1.437,1.655,3.51,2.583,5.663,2.583c0.401,0,0.804-0.032,1.207-0.098 c11.69-1.905,22.528-7.008,31.34-14.755c15.51-13.637,23.404-34.005,21.117-54.485c-2.401-21.507,5.266-42.886,21.034-58.655 c2.929-2.929,2.929-7.677,0-10.606C219.473,268.542,214.725,268.542,211.795,271.471z"/></symbol></svg>